<?xml version="1.0" encoding="UTF-8"?>
<svg xmlns="http://www.w3.org/2000/svg" width="128" height="128" viewBox="0 0 128 128" role="img" aria-label="Upyr">
  <defs>
    <linearGradient id="bg" x1="16" y1="8" x2="112" y2="120" gradientUnits="userSpaceOnUse">
      <stop stop-color="#28303c"/>
      <stop offset="1" stop-color="#12161d"/>
    </linearGradient>
  </defs>
  <rect width="128" height="128" rx="28" fill="url(#bg)"/>
  <g transform="translate(9 9) scale(5)">
    <mask id="mascot" maskUnits="userSpaceOnUse" x="0" y="0" width="22" height="22">
      <rect width="22" height="22" fill="black"/>
      <rect x="6.5" y="6" width="2.8" height="7.7" fill="white"/>
      <rect x="12.7" y="6" width="2.8" height="7.7" fill="white"/>
      <ellipse cx="11" cy="13.2" rx="4.7" ry="5.2" fill="white"/>
      <polygon points="2.2,3.5 6.3,3.5 7,5.7 7.7,6.5 9.1,6.5 9.1,11 5.7,11 5,8.7 3.1,7.6 3.1,6 2.7,4.7" fill="white"/>
      <polygon points="19.8,3.5 15.7,3.5 15,5.7 14.3,6.5 12.9,6.5 12.9,11 16.3,11 17,8.7 18.9,7.6 18.9,6 19.3,4.7" fill="white"/>
      <rect x="9.2" y="0" width="3.6" height="7.6" fill="black"/>
      <ellipse cx="11" cy="7.6" rx="1.8" ry="3" fill="black"/>
      <polygon points="7.8,13.1 9.9,13.8 9.5,15 8.3,14.6" fill="black"/>
      <polygon points="14.2,13.1 12.1,13.8 12.5,15 13.7,14.6" fill="black"/>
      <polygon points="8.7,15.3 10.1,15.7 9.5,17.8" fill="black"/>
      <polygon points="13.3,15.3 11.9,15.7 12.5,17.8" fill="black"/>
    </mask>
    <rect width="22" height="22" fill="#f6f8fb" mask="url(#mascot)"/>
  </g>
</svg>
